:SAMPLES-PER-SECOND 30
:FULLY-SPECIFIED
:DEGREES
127
root  -23.02 39.85 -33.0245 1.87851 -2.1518 2.0824
RightUpLeg  10.1244 -16.7642 -25.3765
RightLeg  2.16116 -29.5698 3.47448
RightFoot  -3.16926 -1.08238 14.6302
RightToes  0.00048216 0.542163 -0.142577
Spine  17.3765 0.0613236 8.70332
Spine1  3.88506 3.82346 -11.1046
HEad  -24.6792 36.6641 -28.2317
LeftShoulder1  9.29797 -13.8853 -46.652
LeftArm  -17.9049 25.9644 -19.5796
LeftForeArm  118.915 -75.8656 -131.588
LeftHand  -0.25398 0.0180481 5.50724
RightShoulder  4.93053 9.00661 33.467
RightArm  -12.3753 -31.3482 26.1497
RightForeArm  74.8924 74.0973 130.44
RightHand  0.623569 -20.2823 -5.73326
LeftUpLeg  -17.2221 37.291 0.358594
LeftLeg  20.8594 12.0608 5.34422
LeftFoot  -5.66452 0.284923 -5.10671
LeftToes  1.06244e-005 4.65856e-005 -8.18505e-006
128
root  -21.7705 39.6468 -32.1492 3.25363 4.1187 4.53388
RightUpLeg  10.4082 -17.1199 -28.0025
RightLeg  5.71643 -27.4733 0.0267918
RightFoot  -7.80194 -0.377924 9.98662
RightToes  0.00048216 0.542163 -0.142577
Spine  13.4001 0.400487 6.00133
Spine1  4.93606 3.50056 -10.0502
HEad  -20.1333 33.6184 -23.7931
LeftShoulder1  9.25513 -13.9651 -46.2126
LeftArm  -15.2832 24.7612 -19.6691
LeftForeArm  117.292 -76.1973 -129.949
LeftHand  -0.25398 0.0180481 5.50724
RightShoulder  4.73724 8.74042 32.7473
RightArm  -12.8558 -34.0695 25.8191
RightForeArm  76.178 73.5008 132.78
RightHand  0.656933 -20.0896 -6.08398
LeftUpLeg  -18.4008 38.0883 -5.19198
LeftLeg  21.2294 6.20997 2.98903
LeftFoot  -6.62385 0.194068 -3.62305
LeftToes  1.06244e-005 4.65856e-005 -8.18505e-006
129
root  -20.5593 39.4973 -31.3374 4.35061 11.0545 6.78929
RightUpLeg  10.0866 -17.2572 -29.0744
RightLeg  11.4469 -21.5143 -3.64647
RightFoot  -12.3426 -0.0373945 4.39674
RightToes  0.00048216 0.542163 -0.142577
Spine  10.3848 0.156211 3.25573
Spine1  5.71102 2.65722 -8.64993
HEad  -14.8721 30.2186 -19.147
LeftShoulder1  9.30184 -14.0344 -46.2639
LeftArm  -12.3104 22.8148 -19.2494
LeftForeArm  113.393 -76.8746 -126.102
LeftHand  -0.25398 0.0180481 5.50724
RightShoulder  4.52292 8.43214 31.9512
RightArm  -13.2045 -36.2033 25.5526
RightForeArm  75.3775 73.2983 133.391
RightHand  0.734536 -19.3769 -6.95801
LeftUpLeg  -17.7982 32.5815 -9.13599
LeftLeg  21.6498 4.36201 2.24198
LeftFoot  -8.82439 0.0763887 -1.10827
LeftToes  1.06244e-005 4.65856e-005 -8.18505e-006
130
root  -19.4525 39.4629 -30.5937 4.53954 16.8206 7.78516
RightUpLeg  8.35801 -16.0332 -27.5154
RightLeg  18.8093 -12.4835 -4.93965
RightFoot  -14.8296 -0.0370319 1.8362
RightToes  0.00048216 0.542163 -0.142577
Spine  8.72788 -0.0520894 1.96891
Spine1  6.52662 2.17107 -7.8732
HEad  -10.071 26.6458 -15.2393
LeftShoulder1  9.34198 -13.9929 -46.5825
LeftArm  -9.71573 20.422 -19.1351
LeftForeArm  107.274 -77.7565 -119.821
LeftHand  -0.25398 0.0180481 5.50724
RightShoulder  4.37932 8.18138 31.5337
RightArm  -13.6323 -37.1184 24.9931
RightForeArm  73.1047 73.5974 132.109
RightHand  0.716353 -19.7794 -6.65195
LeftUpLeg  -15.2179 25.9673 -10.4528
LeftLeg  21.4639 5.53119 2.74497
LeftFoot  -10.7148 0.0626578 -0.0311797
LeftToes  1.06244e-005 4.65856e-005 -8.18505e-006
131
root  -18.4508 39.5645 -29.8748 3.67296 20.2321 7.31961
RightUpLeg  4.56393 -11.4914 -23.2537
RightLeg  26.8997 -6.12916 -3.62551
RightFoot  -14.9295 -0.0210237 2.59625
RightToes  0.00048216 0.542163 -0.142577
Spine  8.19105 0.313034 2.06246
Spine1  7.38456 2.42947 -7.58879
HEad  -6.43122 23.6521 -12.4457
LeftShoulder1  9.30741 -13.8808 -46.7122
LeftArm  -8.0224 18.5413 -19.8683
LeftForeArm  100.418 -78.5007 -112.557
LeftHand  -0.25398 0.0180481 5.50724
RightShoulder  4.33476 8.05517 31.5563
RightArm  -14.0551 -36.7621 24.0938
RightForeArm  69.4573 74.1858 129.479
RightHand  0.700266 -20.3301 -6.31003
LeftUpLeg  -11.6516 22.5136 -9.86888
LeftLeg  20.4723 6.41071 2.87748
LeftFoot  -11.7133 0.0713085 0.271084
LeftToes  1.06244e-005 4.65856e-005 -8.18505e-006
132
root  -17.4969 39.7668 -29.139 2.47553 22.1398 6.12858
RightUpLeg  -0.46001 -7.5483 -18.0941
RightLeg  33.8782 -3.81427 -3.05968
RightFoot  -14.4334 0.00520814 3.80785
RightToes  0.00048216 0.542163 -0.142577
Spine  8.17617 0.838524 2.29115
Spine1  7.97753 2.7058 -6.82551
HEad  -3.91543 21.749 -10.6352
LeftShoulder1  9.21877 -13.7811 -46.5294
LeftArm  -7.42583 17.8952 -21.0715
LeftForeArm  95.9183 -78.8665 -107.647
LeftHand  -0.25398 0.0180481 5.50724
RightShoulder  4.35792 8.11416 31.5658
RightArm  -14.3624 -35.5636 23.3653
RightForeArm  65.2695 74.7788 126.445
RightHand  0.782069 -19.8269 -7.14022
LeftUpLeg  -7.6106 19.9019 -8.12297
LeftLeg  18.4757 7.56928 1.70473
LeftFoot  -12.2985 0.0813392 0.905672
LeftToes  1.06244e-005 4.65856e-005 -8.18505e-006
133
root  -16.5328 40.0219 -28.3776 1.74323 24.271 4.78418
RightUpLeg  -5.83768 -5.72903 -13.2269
RightLeg  38.2115 -5.27963 -4.71386
RightFoot  -14.2786 -0.0165731 3.09456
RightToes  0.00048216 0.542163 -0.142577
Spine  7.95836 0.826458 2.1752
Spine1  8.20832 2.226 -5.10355
HEad  -2.31947 20.655 -9.58506
LeftShoulder1  9.12385 -13.7504 -46.121
LeftArm  -7.64652 18.234 -22.1887
LeftForeArm  95.2592 -78.9271 -106.758
LeftHand  -0.25398 0.0180481 5.50724
RightShoulder  4.37117 8.24538 31.257
RightArm  -14.6376 -34.1308 23.1591
RightForeArm  62.7866 75.1747 124.221
RightHand  0.833606 -19.2402 -7.81413
LeftUpLeg  -3.62094 13.4951 -6.23661
LeftLeg  15.3582 11.9484 -0.18294
LeftFoot  -12.5035 0.0886347 1.34417
LeftToes  1.06244e-005 4.65856e-005 -8.18505e-006
134
root  -15.5588 40.2343 -27.6151 1.4271 27.0638 3.4277
RightUpLeg  -11.1078 -6.60227 -9.0663
RightLeg  39.0558 -7.61803 -6.8294
RightFoot  -13.3094 -0.0619473 1.60821
RightToes  0.00048216 0.542163 -0.142577
Spine  7.56512 0.320163 2.07425
Spine1  8.24674 1.21185 -3.21129
HEad  -1.63243 19.8149 -9.05482
LeftShoulder1  9.0454 -13.7995 -45.5774
LeftArm  -8.11051 18.6742 -23.136
LeftForeArm  96.4797 -78.8639 -107.895
LeftHand  -0.25398 0.0180481 5.50724
RightShoulder  4.33378 8.26346 30.8783
RightArm  -15.0552 -32.9728 23.1926
RightForeArm  63.3672 75.2578 123.856
RightHand  0.763414 -19.7444 -7.03752
LeftUpLeg  -0.324553 7.03 -5.33899
LeftLeg  11.9019 15.8207 -1.53598
LeftFoot  -12.4112 0.0851181 1.14524
LeftToes  1.06244e-005 4.65856e-005 -8.18505e-006
135
root  -14.5863 40.2946 -26.8432 0.934516 29.7639 2.36378
RightUpLeg  -15.4871 -8.62453 -5.69871
RightLeg  36.4095 -9.15247 -7.42913
RightFoot  -11.0523 -0.0835106 1.76013
RightToes  0.00048216 0.542163 -0.142577
Spine  7.69308 -0.161491 1.95907
Spine1  8.24351 0.334811 -1.96606
HEad  -1.76643 19.0139 -8.73397
LeftShoulder1  9.00302 -13.8842 -45.1259
LeftArm  -8.50157 18.5223 -23.9506
LeftForeArm  97.4363 -78.8061 -108.831
LeftHand  -0.25398 0.0180481 5.50724
RightShoulder  4.30349 8.2074 30.7952
RightArm  -15.7347 -32.2665 23.0894
RightForeArm  65.7207 75.0237 125.324
RightHand  0.66128 -20.5589 -5.93478
LeftUpLeg  2.68771 3.47562 -5.12784
LeftLeg  9.45651 16.9296 -2.16805
LeftFoot  -12.8172 0.088171 0.882013
LeftToes  1.06244e-005 4.65856e-005 -8.18505e-006
136
root  -13.6001 40.1726 -26.0167 0.0285846 32.0601 1.9923
RightUpLeg  -18.2668 -10.6151 -3.25249
RightLeg  30.833 -9.32086 -6.20644
RightFoot  -8.06914 -0.132296 2.7746
RightToes  0.00048216 0.542163 -0.142577
Spine  8.62924 -0.461272 1.38439
Spine1  8.28071 -0.256378 -1.21197
HEad  -2.33854 18.21 -8.3382
LeftShoulder1  9.01686 -13.937 -45.0557
LeftArm  -8.89298 17.6069 -24.4278
LeftForeArm  98.0372 -78.7654 -109.44
LeftHand  -0.25398 0.0180481 5.50724
RightShoulder  4.33645 8.23821 30.9813
RightArm  -16.7897 -31.9139 23.0528
RightForeArm  67.8528 74.5674 127.691
RightHand  0.686957 -20.621 -6.11008
LeftUpLeg  6.15487 2.57281 -5.41882
LeftLeg  8.07579 15.7075 -2.41653
LeftFoot  -14.1009 0.115437 1.2393
LeftToes  1.06244e-005 4.65856e-005 -8.18505e-006
137
root  -12.5849 39.9035 -25.1139 -1.02446 34.1807 2.20341
RightUpLeg  -19.8 -12.9973 -1.32885
RightLeg  23.2675 -7.15456 -3.72481
RightFoot  -4.45125 -0.1688 2.38104
RightToes  0.00048216 0.542163 -0.142577
Spine  9.97561 -0.697091 0.519331
Spine1  8.3845 -0.706238 -0.738477
HEad  -2.98165 17.2289 -7.76617
LeftShoulder1  9.05822 -13.9258 -45.3012
LeftArm  -9.36587 16.0844 -24.4903
LeftForeArm  98.6247 -78.7239 -110.039
LeftHand  -0.25398 0.0180481 5.50724
RightShoulder  4.39277 8.31843 31.2095
RightArm  -18.3295 -31.8375 23.5542
RightForeArm  69.7573 73.9753 130.352
RightHand  0.809536 -20.3461 -7.11414
LeftUpLeg  10.0924 2.85152 -5.91153
LeftLeg  7.3512 13.6262 -2.5505
LeftFoot  -15.8783 0.181576 2.16061
LeftToes  1.06244e-005 4.65856e-005 -8.18505e-006
